<mxfile host="app.diagrams.net" modified="2024-04-08T07:49:47.801Z" agent="Mozilla/5.0 (Windows NT 10.0; Win64; x64) AppleWebKit/537.36 (KHTML, like Gecko) Chrome/123.0.0.0 Safari/537.36" etag="J9wIGftKdDU4rWdnAQeu" version="24.2.2" type="github">
  <diagram id="C5RBs43oDa-KdzZeNtuy" name="Page-1">
    <mxGraphModel dx="774" dy="953" grid="1" gridSize="10" guides="1" tooltips="1" connect="1" arrows="1" fold="1" page="1" pageScale="1" pageWidth="827" pageHeight="1169" math="0" shadow="0">
      <root>
        <mxCell id="WIyWlLk6GJQsqaUBKTNV-0" />
        <mxCell id="WIyWlLk6GJQsqaUBKTNV-1" parent="WIyWlLk6GJQsqaUBKTNV-0" />
        <mxCell id="XO9gIzgupckmD5XVwx1u-64" value="" style="edgeStyle=orthogonalEdgeStyle;rounded=0;orthogonalLoop=1;jettySize=auto;html=1;" parent="WIyWlLk6GJQsqaUBKTNV-1" source="WIyWlLk6GJQsqaUBKTNV-7" target="XO9gIzgupckmD5XVwx1u-63" edge="1">
          <mxGeometry relative="1" as="geometry" />
        </mxCell>
        <mxCell id="WIyWlLk6GJQsqaUBKTNV-7" value="Press POI" style="rounded=1;whiteSpace=wrap;html=1;fontSize=12;glass=0;strokeWidth=1;shadow=0;" parent="WIyWlLk6GJQsqaUBKTNV-1" vertex="1">
          <mxGeometry x="58" y="90" width="120" height="40" as="geometry" />
        </mxCell>
        <mxCell id="XO9gIzgupckmD5XVwx1u-47" style="edgeStyle=orthogonalEdgeStyle;rounded=0;orthogonalLoop=1;jettySize=auto;html=1;entryX=0;entryY=0.5;entryDx=0;entryDy=0;exitX=0;exitY=0.5;exitDx=0;exitDy=0;" parent="WIyWlLk6GJQsqaUBKTNV-1" source="WIyWlLk6GJQsqaUBKTNV-11" target="XO9gIzgupckmD5XVwx1u-34" edge="1">
          <mxGeometry relative="1" as="geometry">
            <mxPoint x="18" y="30" as="targetPoint" />
            <mxPoint x="-12" y="619.9999999999998" as="sourcePoint" />
            <Array as="points">
              <mxPoint x="40" y="650" />
              <mxPoint x="40" y="40" />
            </Array>
          </mxGeometry>
        </mxCell>
        <mxCell id="WIyWlLk6GJQsqaUBKTNV-11" value="Response placed" style="rounded=1;whiteSpace=wrap;html=1;fontSize=12;glass=0;strokeWidth=1;shadow=0;" parent="WIyWlLk6GJQsqaUBKTNV-1" vertex="1">
          <mxGeometry x="120" y="630" width="120" height="40" as="geometry" />
        </mxCell>
        <mxCell id="XO9gIzgupckmD5XVwx1u-66" style="edgeStyle=orthogonalEdgeStyle;rounded=0;orthogonalLoop=1;jettySize=auto;html=1;" parent="WIyWlLk6GJQsqaUBKTNV-1" source="XO9gIzgupckmD5XVwx1u-0" target="WIyWlLk6GJQsqaUBKTNV-11" edge="1">
          <mxGeometry relative="1" as="geometry" />
        </mxCell>
        <mxCell id="XO9gIzgupckmD5XVwx1u-67" value="Yes" style="edgeLabel;html=1;align=center;verticalAlign=middle;resizable=0;points=[];" parent="XO9gIzgupckmD5XVwx1u-66" vertex="1" connectable="0">
          <mxGeometry x="0.3724" relative="1" as="geometry">
            <mxPoint x="6" y="-10" as="offset" />
          </mxGeometry>
        </mxCell>
        <mxCell id="XO9gIzgupckmD5XVwx1u-68" style="edgeStyle=orthogonalEdgeStyle;rounded=0;orthogonalLoop=1;jettySize=auto;html=1;" parent="WIyWlLk6GJQsqaUBKTNV-1" source="XO9gIzgupckmD5XVwx1u-0" target="XO9gIzgupckmD5XVwx1u-3" edge="1">
          <mxGeometry relative="1" as="geometry" />
        </mxCell>
        <mxCell id="XO9gIzgupckmD5XVwx1u-69" value="No" style="edgeLabel;html=1;align=center;verticalAlign=middle;resizable=0;points=[];" parent="XO9gIzgupckmD5XVwx1u-68" vertex="1" connectable="0">
          <mxGeometry x="-0.4599" y="-4" relative="1" as="geometry">
            <mxPoint x="40" y="-14" as="offset" />
          </mxGeometry>
        </mxCell>
        <mxCell id="XO9gIzgupckmD5XVwx1u-0" value="Response valid?&amp;nbsp;" style="rhombus;whiteSpace=wrap;html=1;shadow=0;fontFamily=Helvetica;fontSize=12;align=center;strokeWidth=1;spacing=6;spacingTop=-4;" parent="WIyWlLk6GJQsqaUBKTNV-1" vertex="1">
          <mxGeometry x="198" y="510" width="100" height="80" as="geometry" />
        </mxCell>
        <mxCell id="XO9gIzgupckmD5XVwx1u-30" value="" style="edgeStyle=orthogonalEdgeStyle;rounded=0;orthogonalLoop=1;jettySize=auto;html=1;" parent="WIyWlLk6GJQsqaUBKTNV-1" source="XO9gIzgupckmD5XVwx1u-3" target="XO9gIzgupckmD5XVwx1u-29" edge="1">
          <mxGeometry relative="1" as="geometry" />
        </mxCell>
        <mxCell id="XO9gIzgupckmD5XVwx1u-3" value="Open error modal&amp;nbsp;" style="rounded=1;whiteSpace=wrap;html=1;fontSize=12;glass=0;strokeWidth=1;shadow=0;" parent="WIyWlLk6GJQsqaUBKTNV-1" vertex="1">
          <mxGeometry x="260" y="630" width="120" height="40" as="geometry" />
        </mxCell>
        <mxCell id="XO9gIzgupckmD5XVwx1u-20" style="edgeStyle=orthogonalEdgeStyle;rounded=0;orthogonalLoop=1;jettySize=auto;html=1;entryX=0.5;entryY=0;entryDx=0;entryDy=0;startArrow=classic;startFill=1;exitX=1;exitY=0.5;exitDx=0;exitDy=0;" parent="WIyWlLk6GJQsqaUBKTNV-1" source="XO9gIzgupckmD5XVwx1u-6" target="XO9gIzgupckmD5XVwx1u-8" edge="1">
          <mxGeometry relative="1" as="geometry">
            <mxPoint x="368" y="250" as="sourcePoint" />
          </mxGeometry>
        </mxCell>
        <mxCell id="XO9gIzgupckmD5XVwx1u-21" style="edgeStyle=orthogonalEdgeStyle;rounded=0;orthogonalLoop=1;jettySize=auto;html=1;entryX=0.5;entryY=0;entryDx=0;entryDy=0;" parent="WIyWlLk6GJQsqaUBKTNV-1" source="XO9gIzgupckmD5XVwx1u-6" target="XO9gIzgupckmD5XVwx1u-9" edge="1">
          <mxGeometry relative="1" as="geometry" />
        </mxCell>
        <mxCell id="XO9gIzgupckmD5XVwx1u-22" style="edgeStyle=orthogonalEdgeStyle;rounded=0;orthogonalLoop=1;jettySize=auto;html=1;entryX=0.5;entryY=0;entryDx=0;entryDy=0;" parent="WIyWlLk6GJQsqaUBKTNV-1" source="XO9gIzgupckmD5XVwx1u-6" target="XO9gIzgupckmD5XVwx1u-7" edge="1">
          <mxGeometry relative="1" as="geometry" />
        </mxCell>
        <mxCell id="XO9gIzgupckmD5XVwx1u-6" value="Response form displayed" style="rounded=1;whiteSpace=wrap;html=1;fontSize=12;glass=0;strokeWidth=1;shadow=0;" parent="WIyWlLk6GJQsqaUBKTNV-1" vertex="1">
          <mxGeometry x="188" y="220" width="120" height="40" as="geometry" />
        </mxCell>
        <mxCell id="XO9gIzgupckmD5XVwx1u-70" style="edgeStyle=orthogonalEdgeStyle;rounded=0;orthogonalLoop=1;jettySize=auto;html=1;entryX=0;entryY=0.5;entryDx=0;entryDy=0;" parent="WIyWlLk6GJQsqaUBKTNV-1" source="XO9gIzgupckmD5XVwx1u-7" target="XO9gIzgupckmD5XVwx1u-34" edge="1">
          <mxGeometry relative="1" as="geometry">
            <Array as="points">
              <mxPoint x="40" y="320" />
              <mxPoint x="40" y="40" />
            </Array>
          </mxGeometry>
        </mxCell>
        <mxCell id="XO9gIzgupckmD5XVwx1u-7" value="Press cancel" style="rounded=1;whiteSpace=wrap;html=1;fontSize=12;glass=0;strokeWidth=1;shadow=0;" parent="WIyWlLk6GJQsqaUBKTNV-1" vertex="1">
          <mxGeometry x="58" y="300" width="120" height="40" as="geometry" />
        </mxCell>
        <mxCell id="XO9gIzgupckmD5XVwx1u-8" value="Fill information" style="rounded=1;whiteSpace=wrap;html=1;fontSize=12;glass=0;strokeWidth=1;shadow=0;" parent="WIyWlLk6GJQsqaUBKTNV-1" vertex="1">
          <mxGeometry x="318" y="300" width="120" height="40" as="geometry" />
        </mxCell>
        <mxCell id="XO9gIzgupckmD5XVwx1u-19" style="edgeStyle=orthogonalEdgeStyle;rounded=0;orthogonalLoop=1;jettySize=auto;html=1;entryX=0.5;entryY=0;entryDx=0;entryDy=0;" parent="WIyWlLk6GJQsqaUBKTNV-1" source="XO9gIzgupckmD5XVwx1u-9" target="XO9gIzgupckmD5XVwx1u-14" edge="1">
          <mxGeometry relative="1" as="geometry" />
        </mxCell>
        <mxCell id="XO9gIzgupckmD5XVwx1u-9" value="Press submit" style="rounded=1;whiteSpace=wrap;html=1;fontSize=12;glass=0;strokeWidth=1;shadow=0;" parent="WIyWlLk6GJQsqaUBKTNV-1" vertex="1">
          <mxGeometry x="188" y="300" width="120" height="40" as="geometry" />
        </mxCell>
        <mxCell id="XO9gIzgupckmD5XVwx1u-18" style="edgeStyle=orthogonalEdgeStyle;rounded=0;orthogonalLoop=1;jettySize=auto;html=1;entryX=0.5;entryY=0;entryDx=0;entryDy=0;" parent="WIyWlLk6GJQsqaUBKTNV-1" source="XO9gIzgupckmD5XVwx1u-14" target="XO9gIzgupckmD5XVwx1u-0" edge="1">
          <mxGeometry relative="1" as="geometry" />
        </mxCell>
        <mxCell id="VDAlNxBbB4RQJf3NabmS-0" value="Yes" style="edgeLabel;html=1;align=center;verticalAlign=middle;resizable=0;points=[];" vertex="1" connectable="0" parent="XO9gIzgupckmD5XVwx1u-18">
          <mxGeometry x="-0.6492" y="-5" relative="1" as="geometry">
            <mxPoint x="-13" as="offset" />
          </mxGeometry>
        </mxCell>
        <mxCell id="XO9gIzgupckmD5XVwx1u-26" style="edgeStyle=orthogonalEdgeStyle;rounded=0;orthogonalLoop=1;jettySize=auto;html=1;entryX=1;entryY=0.5;entryDx=0;entryDy=0;exitX=1;exitY=0.5;exitDx=0;exitDy=0;" parent="WIyWlLk6GJQsqaUBKTNV-1" source="XO9gIzgupckmD5XVwx1u-14" target="XO9gIzgupckmD5XVwx1u-6" edge="1">
          <mxGeometry relative="1" as="geometry">
            <mxPoint x="548" y="435" as="targetPoint" />
            <Array as="points">
              <mxPoint x="450" y="425" />
              <mxPoint x="450" y="240" />
            </Array>
          </mxGeometry>
        </mxCell>
        <mxCell id="VDAlNxBbB4RQJf3NabmS-1" value="No" style="edgeLabel;html=1;align=center;verticalAlign=middle;resizable=0;points=[];" vertex="1" connectable="0" parent="XO9gIzgupckmD5XVwx1u-26">
          <mxGeometry x="-0.7924" y="1" relative="1" as="geometry">
            <mxPoint x="-32" y="-14" as="offset" />
          </mxGeometry>
        </mxCell>
        <mxCell id="XO9gIzgupckmD5XVwx1u-14" value="All information filled?" style="rhombus;whiteSpace=wrap;html=1;shadow=0;fontFamily=Helvetica;fontSize=12;align=center;strokeWidth=1;spacing=6;spacingTop=-4;" parent="WIyWlLk6GJQsqaUBKTNV-1" vertex="1">
          <mxGeometry x="193" y="370" width="110" height="110" as="geometry" />
        </mxCell>
        <mxCell id="XO9gIzgupckmD5XVwx1u-59" style="edgeStyle=orthogonalEdgeStyle;rounded=0;orthogonalLoop=1;jettySize=auto;html=1;entryX=1;entryY=0.5;entryDx=0;entryDy=0;" parent="WIyWlLk6GJQsqaUBKTNV-1" source="XO9gIzgupckmD5XVwx1u-29" target="XO9gIzgupckmD5XVwx1u-34" edge="1">
          <mxGeometry relative="1" as="geometry">
            <mxPoint x="808" y="-10" as="targetPoint" />
            <Array as="points">
              <mxPoint x="750" y="650" />
              <mxPoint x="750" y="40" />
            </Array>
          </mxGeometry>
        </mxCell>
        <mxCell id="XO9gIzgupckmD5XVwx1u-29" value="Press cancel" style="rounded=1;whiteSpace=wrap;html=1;fontSize=12;glass=0;strokeWidth=1;shadow=0;" parent="WIyWlLk6GJQsqaUBKTNV-1" vertex="1">
          <mxGeometry x="438" y="630" width="120" height="40" as="geometry" />
        </mxCell>
        <mxCell id="XO9gIzgupckmD5XVwx1u-71" style="edgeStyle=orthogonalEdgeStyle;rounded=0;orthogonalLoop=1;jettySize=auto;html=1;" parent="WIyWlLk6GJQsqaUBKTNV-1" source="XO9gIzgupckmD5XVwx1u-31" target="XO9gIzgupckmD5XVwx1u-6" edge="1">
          <mxGeometry relative="1" as="geometry" />
        </mxCell>
        <mxCell id="XO9gIzgupckmD5XVwx1u-31" value="Press somewhere on the map" style="rounded=1;whiteSpace=wrap;html=1;fontSize=12;glass=0;strokeWidth=1;shadow=0;" parent="WIyWlLk6GJQsqaUBKTNV-1" vertex="1">
          <mxGeometry x="188" y="90" width="120" height="40" as="geometry" />
        </mxCell>
        <mxCell id="XO9gIzgupckmD5XVwx1u-82" style="edgeStyle=orthogonalEdgeStyle;rounded=0;orthogonalLoop=1;jettySize=auto;html=1;entryX=0.583;entryY=1;entryDx=0;entryDy=0;exitX=0.518;exitY=1.07;exitDx=0;exitDy=0;exitPerimeter=0;entryPerimeter=0;" parent="WIyWlLk6GJQsqaUBKTNV-1" source="XO9gIzgupckmD5XVwx1u-33" target="XO9gIzgupckmD5XVwx1u-50" edge="1">
          <mxGeometry relative="1" as="geometry">
            <Array as="points">
              <mxPoint x="380" y="230" />
              <mxPoint x="680" y="230" />
            </Array>
            <mxPoint x="380" y="140" as="sourcePoint" />
            <mxPoint x="672" y="140" as="targetPoint" />
          </mxGeometry>
        </mxCell>
        <mxCell id="XO9gIzgupckmD5XVwx1u-33" value="Press an POV" style="rounded=1;whiteSpace=wrap;html=1;fontSize=12;glass=0;strokeWidth=1;shadow=0;" parent="WIyWlLk6GJQsqaUBKTNV-1" vertex="1">
          <mxGeometry x="318" y="90" width="120" height="40" as="geometry" />
        </mxCell>
        <mxCell id="XO9gIzgupckmD5XVwx1u-60" style="edgeStyle=orthogonalEdgeStyle;rounded=0;orthogonalLoop=1;jettySize=auto;html=1;entryX=0.5;entryY=0;entryDx=0;entryDy=0;" parent="WIyWlLk6GJQsqaUBKTNV-1" source="XO9gIzgupckmD5XVwx1u-34" target="XO9gIzgupckmD5XVwx1u-33" edge="1">
          <mxGeometry relative="1" as="geometry">
            <Array as="points">
              <mxPoint x="338" y="70" />
              <mxPoint x="378" y="70" />
            </Array>
          </mxGeometry>
        </mxCell>
        <mxCell id="XO9gIzgupckmD5XVwx1u-61" style="edgeStyle=orthogonalEdgeStyle;rounded=0;orthogonalLoop=1;jettySize=auto;html=1;" parent="WIyWlLk6GJQsqaUBKTNV-1" source="XO9gIzgupckmD5XVwx1u-34" target="XO9gIzgupckmD5XVwx1u-36" edge="1">
          <mxGeometry relative="1" as="geometry">
            <Array as="points">
              <mxPoint x="338" y="70" />
              <mxPoint x="508" y="70" />
            </Array>
          </mxGeometry>
        </mxCell>
        <mxCell id="XO9gIzgupckmD5XVwx1u-62" style="edgeStyle=orthogonalEdgeStyle;rounded=0;orthogonalLoop=1;jettySize=auto;html=1;" parent="WIyWlLk6GJQsqaUBKTNV-1" source="XO9gIzgupckmD5XVwx1u-34" target="XO9gIzgupckmD5XVwx1u-31" edge="1">
          <mxGeometry relative="1" as="geometry">
            <Array as="points">
              <mxPoint x="338" y="70" />
              <mxPoint x="248" y="70" />
            </Array>
          </mxGeometry>
        </mxCell>
        <mxCell id="XO9gIzgupckmD5XVwx1u-65" style="edgeStyle=orthogonalEdgeStyle;rounded=0;orthogonalLoop=1;jettySize=auto;html=1;entryX=0.5;entryY=0;entryDx=0;entryDy=0;" parent="WIyWlLk6GJQsqaUBKTNV-1" source="XO9gIzgupckmD5XVwx1u-34" target="WIyWlLk6GJQsqaUBKTNV-7" edge="1">
          <mxGeometry relative="1" as="geometry">
            <Array as="points">
              <mxPoint x="338" y="70" />
              <mxPoint x="118" y="70" />
            </Array>
          </mxGeometry>
        </mxCell>
        <mxCell id="XO9gIzgupckmD5XVwx1u-34" value="Building displayed" style="rounded=1;whiteSpace=wrap;html=1;fontSize=12;glass=0;strokeWidth=1;shadow=0;" parent="WIyWlLk6GJQsqaUBKTNV-1" vertex="1">
          <mxGeometry x="278" y="20" width="120" height="40" as="geometry" />
        </mxCell>
        <mxCell id="XO9gIzgupckmD5XVwx1u-36" value="Press all responses" style="rounded=1;whiteSpace=wrap;html=1;fontSize=12;glass=0;strokeWidth=1;shadow=0;" parent="WIyWlLk6GJQsqaUBKTNV-1" vertex="1">
          <mxGeometry x="450" y="90" width="120" height="40" as="geometry" />
        </mxCell>
        <mxCell id="XO9gIzgupckmD5XVwx1u-74" style="edgeStyle=orthogonalEdgeStyle;rounded=0;orthogonalLoop=1;jettySize=auto;html=1;" parent="WIyWlLk6GJQsqaUBKTNV-1" edge="1">
          <mxGeometry relative="1" as="geometry">
            <Array as="points">
              <mxPoint x="450" y="230" />
              <mxPoint x="680" y="230" />
            </Array>
            <mxPoint x="450" y="220" as="sourcePoint" />
            <mxPoint x="680" y="130" as="targetPoint" />
          </mxGeometry>
        </mxCell>
        <mxCell id="XO9gIzgupckmD5XVwx1u-49" value="Press an reaction" style="rounded=1;whiteSpace=wrap;html=1;fontSize=12;glass=0;strokeWidth=1;shadow=0;" parent="WIyWlLk6GJQsqaUBKTNV-1" vertex="1">
          <mxGeometry x="398" y="190" width="120" height="30" as="geometry" />
        </mxCell>
        <mxCell id="XO9gIzgupckmD5XVwx1u-73" style="edgeStyle=orthogonalEdgeStyle;rounded=0;orthogonalLoop=1;jettySize=auto;html=1;entryX=1;entryY=0.5;entryDx=0;entryDy=0;" parent="WIyWlLk6GJQsqaUBKTNV-1" source="XO9gIzgupckmD5XVwx1u-50" target="XO9gIzgupckmD5XVwx1u-34" edge="1">
          <mxGeometry relative="1" as="geometry">
            <Array as="points">
              <mxPoint x="670" y="40" />
            </Array>
          </mxGeometry>
        </mxCell>
        <mxCell id="XO9gIzgupckmD5XVwx1u-50" value="Change to new point of view" style="rounded=1;whiteSpace=wrap;html=1;fontSize=12;glass=0;strokeWidth=1;shadow=0;" parent="WIyWlLk6GJQsqaUBKTNV-1" vertex="1">
          <mxGeometry x="610" y="90" width="120" height="40" as="geometry" />
        </mxCell>
        <mxCell id="XO9gIzgupckmD5XVwx1u-63" value="Displays new window with POI" style="rounded=1;whiteSpace=wrap;html=1;fontSize=12;glass=0;strokeWidth=1;shadow=0;" parent="WIyWlLk6GJQsqaUBKTNV-1" vertex="1">
          <mxGeometry x="58" y="155" width="120" height="40" as="geometry" />
        </mxCell>
        <mxCell id="XO9gIzgupckmD5XVwx1u-81" style="edgeStyle=orthogonalEdgeStyle;rounded=0;orthogonalLoop=1;jettySize=auto;html=1;entryX=1;entryY=0.5;entryDx=0;entryDy=0;" parent="WIyWlLk6GJQsqaUBKTNV-1" source="XO9gIzgupckmD5XVwx1u-72" target="XO9gIzgupckmD5XVwx1u-34" edge="1">
          <mxGeometry relative="1" as="geometry">
            <Array as="points">
              <mxPoint x="590" y="40" />
            </Array>
          </mxGeometry>
        </mxCell>
        <mxCell id="30b6LjPP9-UYz2XBnzv8-1" style="edgeStyle=orthogonalEdgeStyle;rounded=0;orthogonalLoop=1;jettySize=auto;html=1;" parent="WIyWlLk6GJQsqaUBKTNV-1" source="XO9gIzgupckmD5XVwx1u-72" edge="1">
          <mxGeometry relative="1" as="geometry">
            <mxPoint x="680" y="130" as="targetPoint" />
            <Array as="points">
              <mxPoint x="590" y="230" />
              <mxPoint x="680" y="230" />
            </Array>
          </mxGeometry>
        </mxCell>
        <mxCell id="XO9gIzgupckmD5XVwx1u-72" value="Press cancel" style="rounded=1;whiteSpace=wrap;html=1;fontSize=12;glass=0;strokeWidth=1;shadow=0;" parent="WIyWlLk6GJQsqaUBKTNV-1" vertex="1">
          <mxGeometry x="530" y="190" width="120" height="30" as="geometry" />
        </mxCell>
        <mxCell id="XO9gIzgupckmD5XVwx1u-84" style="edgeStyle=orthogonalEdgeStyle;rounded=0;orthogonalLoop=1;jettySize=auto;html=1;exitX=0.75;exitY=1;exitDx=0;exitDy=0;entryX=0.172;entryY=0.063;entryDx=0;entryDy=0;entryPerimeter=0;" parent="WIyWlLk6GJQsqaUBKTNV-1" source="XO9gIzgupckmD5XVwx1u-36" target="XO9gIzgupckmD5XVwx1u-72" edge="1">
          <mxGeometry relative="1" as="geometry">
            <Array as="points">
              <mxPoint x="551" y="130" />
              <mxPoint x="551" y="150" />
            </Array>
          </mxGeometry>
        </mxCell>
        <mxCell id="XO9gIzgupckmD5XVwx1u-85" style="edgeStyle=orthogonalEdgeStyle;rounded=0;orthogonalLoop=1;jettySize=auto;html=1;exitX=0.25;exitY=1;exitDx=0;exitDy=0;entryX=0.594;entryY=0.064;entryDx=0;entryDy=0;entryPerimeter=0;" parent="WIyWlLk6GJQsqaUBKTNV-1" source="XO9gIzgupckmD5XVwx1u-36" target="XO9gIzgupckmD5XVwx1u-49" edge="1">
          <mxGeometry relative="1" as="geometry">
            <Array as="points">
              <mxPoint x="470" y="130" />
              <mxPoint x="470" y="150" />
              <mxPoint x="469" y="150" />
            </Array>
          </mxGeometry>
        </mxCell>
        <mxCell id="XO9gIzgupckmD5XVwx1u-86" value="Legend" style="shape=table;startSize=30;container=1;collapsible=0;childLayout=tableLayout;fontSize=16;align=left;verticalAlign=top;fillColor=none;strokeColor=none;fontColor=#4D4D4D;fontStyle=1;spacingLeft=6;spacing=0;resizable=0;" parent="WIyWlLk6GJQsqaUBKTNV-1" vertex="1">
          <mxGeometry x="40" y="720" width="180" height="90" as="geometry" />
        </mxCell>
        <mxCell id="XO9gIzgupckmD5XVwx1u-87" value="" style="shape=tableRow;horizontal=0;startSize=0;swimlaneHead=0;swimlaneBody=0;strokeColor=inherit;top=0;left=0;bottom=0;right=0;collapsible=0;dropTarget=0;fillColor=none;points=[[0,0.5],[1,0.5]];portConstraint=eastwest;fontSize=12;" parent="XO9gIzgupckmD5XVwx1u-86" vertex="1">
          <mxGeometry y="30" width="180" height="30" as="geometry" />
        </mxCell>
        <mxCell id="XO9gIzgupckmD5XVwx1u-88" value="POI - Point of interest" style="shape=partialRectangle;html=1;whiteSpace=wrap;connectable=0;strokeColor=inherit;overflow=hidden;fillColor=#1E4074;top=0;left=0;bottom=0;right=0;pointerEvents=1;fontSize=12;align=left;fontColor=#FFFFFF;gradientColor=none;spacingLeft=10;spacingRight=4;" parent="XO9gIzgupckmD5XVwx1u-87" vertex="1">
          <mxGeometry width="180" height="30" as="geometry">
            <mxRectangle width="180" height="30" as="alternateBounds" />
          </mxGeometry>
        </mxCell>
        <mxCell id="XO9gIzgupckmD5XVwx1u-89" value="" style="shape=tableRow;horizontal=0;startSize=0;swimlaneHead=0;swimlaneBody=0;strokeColor=inherit;top=0;left=0;bottom=0;right=0;collapsible=0;dropTarget=0;fillColor=none;points=[[0,0.5],[1,0.5]];portConstraint=eastwest;fontSize=12;" parent="XO9gIzgupckmD5XVwx1u-86" vertex="1">
          <mxGeometry y="60" width="180" height="30" as="geometry" />
        </mxCell>
        <mxCell id="XO9gIzgupckmD5XVwx1u-90" value="POV - Point of view" style="shape=partialRectangle;html=1;whiteSpace=wrap;connectable=0;strokeColor=inherit;overflow=hidden;fillColor=#3162AF;top=0;left=0;bottom=0;right=0;pointerEvents=1;fontSize=12;align=left;fontColor=#FFFFFF;gradientColor=none;spacingLeft=10;spacingRight=4;" parent="XO9gIzgupckmD5XVwx1u-89" vertex="1">
          <mxGeometry width="180" height="30" as="geometry">
            <mxRectangle width="180" height="30" as="alternateBounds" />
          </mxGeometry>
        </mxCell>
        <mxCell id="30b6LjPP9-UYz2XBnzv8-0" value="Open&#39;s new window" style="rounded=1;whiteSpace=wrap;html=1;fontSize=12;glass=0;strokeWidth=1;shadow=0;" parent="WIyWlLk6GJQsqaUBKTNV-1" vertex="1">
          <mxGeometry x="318" y="150" width="120" height="30" as="geometry" />
        </mxCell>
      </root>
    </mxGraphModel>
  </diagram>
</mxfile>
